<?xml version="1.0" encoding="UTF-8"?> <svg xmlns="http://www.w3.org/2000/svg" xmlns:xlink="http://www.w3.org/1999/xlink" width="1920" zoomAndPan="magnify" viewBox="0 0 1440 809.999993" height="1080" preserveAspectRatio="xMidYMid meet"> <path stroke-linecap="butt" transform="matrix(2.4045, 0, 0, 2.4045, 234.75436, 84.277252)" fill="none" stroke-linejoin="miter" d="M 35.527274 135.493063 L 34.401455 135.493063 C 26.510976 135.493063 19.630972 132.518497 13.771191 126.575863 C 7.927655 120.63323 5.0067 113.710987 5.0067 105.820508 C 5.0067 97.930029 7.906536 91.102011 13.709458 85.341328 C 19.531874 79.56115 26.725418 76.669437 35.281966 76.669437 C 43.845012 76.669437 51.199387 80.076135 57.34509 86.894406 L 18.214357 125.508529 C 23.61114 129.831478 28.803228 131.99214 33.792246 131.99214 C 38.782888 131.99214 43.24555 130.858199 47.183479 128.580568 C 51.136029 126.289941 54.401391 123.237396 56.979565 119.424558 L 56.979565 125.784704 C 51.079169 132.253694 43.927864 135.493063 35.527274 135.493063 Z M 34.219505 80.170359 C 27.625423 80.170359 21.77214 82.727414 16.662904 87.836649 C 11.547171 92.929639 8.990116 98.805666 8.990116 105.456607 C 8.990116 112.112422 11.193017 117.925091 15.59557 122.894615 L 51.865455 86.894406 C 46.713981 82.409001 40.834705 80.170359 34.219505 80.170359 Z M 95.36625 40.763452 L 99.349666 40.763452 L 99.349666 97.363058 L 121.537882 77.920346 L 126.647117 77.920346 L 100.964477 100.347372 L 133.130729 133.99847 L 127.771311 133.99847 L 99.349666 104.451006 L 99.349666 133.99847 L 95.36625 133.99847 Z M 195.94427 135.367972 C 187.969314 135.367972 181.115303 132.39828 175.370866 126.450772 C 169.631302 120.508139 166.760707 113.592395 166.760707 105.701916 C 166.760707 97.809812 169.67354 90.981794 175.495957 85.222735 C 181.318373 79.440933 188.313721 76.550844 196.490122 76.550844 C 204.689267 76.550844 211.661871 79.440933 217.427428 85.222735 C 223.20923 90.981794 226.099319 97.830931 226.099319 105.763649 C 226.099319 113.691493 223.26609 120.61211 217.611003 126.51413 C 211.970537 132.419399 205.121399 135.367972 197.068465 135.367972 Z M 222.111029 106.03495 C 222.111029 98.997364 219.594588 92.898773 214.563332 87.747299 C 209.536949 82.592576 203.532582 80.019275 196.55348 80.019275 C 189.574378 80.019275 183.527772 82.61207 178.416912 87.805783 C 173.302803 93.002744 170.745749 99.096462 170.745749 106.096683 C 170.745749 113.075785 173.302803 119.117517 178.416912 124.231626 C 183.527772 129.32624 189.595497 131.867049 196.610339 131.867049 C 203.63168 131.867049 209.636047 129.32624 214.626689 124.231626 C 219.615707 119.117517 222.111029 113.054666 222.111029 106.03495 Z M 296.886192 85.523279 C 293.23581 81.851777 289.210155 80.019275 284.807602 80.019275 C 280.406674 80.019275 276.522356 81.679574 273.151397 85.008294 C 269.786937 88.337013 268.100646 92.201837 268.100646 96.602765 L 268.100646 133.99847 L 264.115605 133.99847 L 264.115605 77.920346 L 268.100646 77.920346 L 268.100646 86.252705 C 269.604987 83.435721 271.928105 81.112603 275.068376 79.289849 C 278.23464 77.462221 281.766429 76.550844 285.657246 76.550844 C 289.574056 76.550844 293.318662 77.878108 296.886192 80.53426 Z M 337.646357 133.99847 L 333.66294 133.99847 L 333.66294 77.920346 L 337.646357 77.920346 L 337.646357 89.26951 C 341.886453 80.789316 349.120611 76.550844 359.34558 76.550844 C 366.318184 76.550844 372.173091 78.961688 376.90218 83.789875 C 381.647515 88.596943 384.022619 94.45185 384.022619 101.346475 L 384.022619 133.99847 L 380.006711 133.99847 L 380.006711 101.346475 C 380.006711 95.606911 377.985761 90.617893 373.948734 86.377796 C 369.932826 82.139324 365.052653 80.019275 359.313089 80.019275 C 353.589771 80.019275 348.547142 82.139324 344.188452 86.377796 C 339.829763 90.617893 337.646357 95.606911 337.646357 101.346475 Z M 337.646357 133.99847 " stroke="#a586c9" stroke-width="1.714" stroke-opacity="1" stroke-miterlimit="4"></path> <path fill="#a586c9" d="M 320.203125 410.085938 L 317.496094 410.085938 C 298.523438 410.085938 281.992188 402.949219 267.90625 388.648438 C 253.804688 374.359375 246.765625 357.726562 246.765625 338.753906 C 246.765625 319.753906 253.753906 303.324219 267.753906 289.460938 C 281.742188 275.574219 299.027344 268.621094 319.601562 268.621094 C 340.164062 268.621094 357.847656 276.8125 372.652344 293.167969 L 278.574219 386.09375 C 291.523438 396.488281 303.996094 401.671875 315.996094 401.671875 C 327.980469 401.671875 338.710938 398.941406 348.203125 393.457031 C 357.722656 387.945312 365.5625 380.605469 371.75 371.414062 L 371.75 386.691406 C 357.546875 402.296875 340.367188 410.085938 320.203125 410.085938 Z M 317.046875 276.988281 C 301.179688 276.988281 287.101562 283.136719 274.816406 295.421875 C 262.519531 307.71875 256.382812 321.859375 256.382812 337.851562 C 256.382812 353.855469 261.667969 367.84375 272.261719 379.832031 L 359.476562 293.167969 C 347.078125 282.386719 332.9375 276.988281 317.046875 276.988281 Z M 317.046875 276.988281 " fill-opacity="1" fill-rule="nonzero"></path> <path fill="#a586c9" d="M 464.046875 182.3125 L 473.613281 182.3125 L 473.613281 318.367188 L 526.964844 271.628906 L 539.285156 271.628906 L 477.519531 325.578125 L 554.867188 406.480469 L 541.992188 406.480469 L 473.613281 335.449219 L 473.613281 406.480469 L 464.046875 406.480469 Z M 464.046875 182.3125 " fill-opacity="1" fill-rule="nonzero"></path> <path fill="#a586c9" d="M 705.867188 409.785156 C 686.695312 409.785156 670.214844 402.648438 656.425781 388.347656 C 642.625 374.058594 635.738281 357.425781 635.738281 338.453125 C 635.738281 319.453125 642.726562 303.023438 656.726562 289.160156 C 670.714844 275.273438 687.546875 268.320312 707.222656 268.320312 C 726.921875 268.320312 743.703125 275.273438 757.566406 289.160156 C 771.453125 303.023438 778.402344 319.503906 778.402344 338.601562 C 778.402344 357.675781 771.605469 374.308594 758.015625 388.496094 C 744.453125 402.699219 727.972656 409.785156 708.574219 409.785156 Z M 768.835938 339.203125 C 768.835938 322.308594 762.789062 307.671875 750.703125 295.273438 C 738.605469 282.886719 724.164062 276.6875 707.371094 276.6875 C 690.601562 276.6875 676.074219 282.9375 663.789062 295.421875 C 651.492188 307.921875 645.355469 322.5625 645.355469 339.355469 C 645.355469 356.125 651.492188 370.652344 663.789062 382.9375 C 676.074219 395.234375 690.652344 401.371094 707.523438 401.371094 C 724.414062 401.371094 738.855469 395.234375 750.851562 382.9375 C 762.835938 370.652344 768.835938 356.074219 768.835938 339.203125 Z M 768.835938 339.203125 " fill-opacity="1" fill-rule="nonzero"></path> <path fill="#a586c9" d="M 948.652344 289.910156 C 939.835938 281.09375 930.128906 276.6875 919.546875 276.6875 C 908.953125 276.6875 899.609375 280.695312 891.492188 288.710938 C 883.402344 296.699219 879.371094 305.980469 879.371094 316.5625 L 879.371094 406.480469 L 869.804688 406.480469 L 869.804688 271.628906 L 879.371094 271.628906 L 879.371094 291.714844 C 882.976562 284.902344 888.5625 279.316406 896.152344 274.933594 C 903.765625 270.527344 912.257812 268.320312 921.648438 268.320312 C 931.03125 268.320312 940.035156 271.515625 948.652344 277.890625 Z M 948.652344 289.910156 " fill-opacity="1" fill-rule="nonzero"></path> <path fill="#a586c9" d="M 1046.59375 406.480469 L 1037.023438 406.480469 L 1037.023438 271.628906 L 1046.59375 271.628906 L 1046.59375 298.878906 C 1056.8125 278.515625 1074.195312 268.320312 1098.742188 268.320312 C 1115.535156 268.320312 1129.625 274.121094 1141.019531 285.703125 C 1152.402344 297.300781 1158.101562 311.378906 1158.101562 327.933594 L 1158.101562 406.480469 L 1148.535156 406.480469 L 1148.535156 327.933594 C 1148.535156 314.183594 1143.675781 302.210938 1133.957031 292.015625 C 1124.261719 281.796875 1112.527344 276.6875 1098.742188 276.6875 C 1084.976562 276.6875 1072.84375 281.796875 1062.320312 292.015625 C 1051.828125 302.210938 1046.59375 314.183594 1046.59375 327.933594 Z M 1046.59375 406.480469 " fill-opacity="1" fill-rule="nonzero"></path> <path fill="#a586c9" d="M 242.753906 536.695312 L 242.753906 498.421875 L 261.890625 498.421875 C 264.019531 498.421875 265.824219 498.875 267.300781 499.777344 C 268.765625 500.679688 269.878906 501.855469 270.65625 503.28125 C 271.421875 504.683594 271.808594 506.214844 271.808594 507.839844 C 271.808594 509.882812 271.308594 511.734375 270.304688 513.402344 C 269.328125 515.042969 267.914062 516.28125 266.046875 517.109375 C 268.253906 517.746094 270.03125 518.898438 271.410156 520.566406 C 272.773438 522.207031 273.460938 524.210938 273.460938 526.578125 C 273.460938 528.617188 272.960938 530.410156 271.960938 531.9375 C 270.957031 533.4375 269.582031 534.617188 267.851562 535.441406 C 266.109375 536.28125 264.121094 536.695312 261.890625 536.695312 Z M 247.5625 533.089844 L 261.742188 533.089844 C 263.003906 533.089844 264.15625 532.773438 265.195312 532.136719 C 266.261719 531.472656 267.101562 530.609375 267.703125 529.53125 C 268.328125 528.429688 268.652344 527.300781 268.652344 526.125 C 268.652344 524.859375 268.351562 523.707031 267.75 522.667969 C 267.152344 521.605469 266.363281 520.753906 265.398438 520.113281 C 264.421875 519.488281 263.304688 519.164062 262.042969 519.164062 L 247.5625 519.164062 Z M 247.5625 515.707031 L 260.539062 515.707031 C 261.804688 515.707031 262.917969 515.378906 263.894531 514.703125 C 264.894531 514.003906 265.660156 513.125 266.199219 512.050781 C 266.726562 510.945312 267 509.820312 267 508.644531 C 267 506.875 266.410156 505.335938 265.246094 504.035156 C 264.105469 502.707031 262.640625 502.03125 260.839844 502.03125 L 247.5625 502.03125 Z M 247.5625 515.707031 " fill-opacity="1" fill-rule="nonzero"></path> <path fill="#a586c9" d="M 296.671875 536.695312 L 296.671875 498.421875 L 301.679688 498.421875 L 301.679688 511.949219 L 310.347656 511.949219 C 314.714844 511.949219 318.011719 513.074219 320.214844 515.304688 C 322.445312 517.507812 323.570312 520.441406 323.570312 524.070312 C 323.570312 526.414062 323.070312 528.554688 322.066406 530.484375 C 321.089844 532.386719 319.675781 533.914062 317.808594 535.042969 C 315.929688 536.144531 313.5625 536.695312 310.695312 536.695312 Z M 301.679688 532.738281 L 310.046875 532.738281 C 312.050781 532.738281 313.664062 532.335938 314.90625 531.535156 C 316.132812 530.710938 317.035156 529.65625 317.609375 528.378906 C 318.210938 527.078125 318.511719 525.660156 318.511719 524.121094 C 318.511719 522.65625 318.234375 521.304688 317.710938 520.0625 C 317.207031 518.835938 316.320312 517.835938 315.054688 517.058594 C 313.816406 516.292969 312.097656 515.90625 309.894531 515.90625 L 301.679688 515.90625 Z M 330.535156 536.695312 L 330.535156 498.523438 L 335.542969 498.523438 L 335.542969 536.695312 Z M 330.535156 536.695312 " fill-opacity="1" fill-rule="nonzero"></path> <path fill="#a586c9" d="M 361.089844 536.695312 L 361.089844 498.421875 L 366.097656 498.421875 L 366.097656 532.285156 L 382.476562 532.285156 L 382.476562 498.421875 L 387.539062 498.421875 L 387.539062 532.285156 L 403.867188 532.285156 L 403.867188 498.421875 L 408.828125 498.421875 L 408.828125 536.695312 Z M 361.089844 536.695312 " fill-opacity="1" fill-rule="nonzero"></path> <path fill="#a586c9" d="M 434.320312 536.695312 L 434.320312 498.523438 L 439.328125 498.523438 L 439.328125 529.933594 L 462.621094 498.421875 L 467.082031 498.421875 L 467.082031 536.695312 L 462.121094 536.695312 L 462.121094 505.789062 L 439.179688 536.695312 Z M 434.320312 536.695312 " fill-opacity="1" fill-rule="nonzero"></path> <path fill="#a586c9" d="M 492.570312 536.695312 L 492.570312 498.421875 L 511.707031 498.421875 C 513.835938 498.421875 515.636719 498.875 517.117188 499.777344 C 518.582031 500.679688 519.695312 501.855469 520.472656 503.28125 C 521.234375 504.683594 521.625 506.214844 521.625 507.839844 C 521.625 509.882812 521.125 511.734375 520.121094 513.402344 C 519.144531 515.042969 517.730469 516.28125 515.863281 517.109375 C 518.066406 517.746094 519.84375 518.898438 521.222656 520.566406 C 522.589844 522.207031 523.277344 524.210938 523.277344 526.578125 C 523.277344 528.617188 522.777344 530.410156 521.773438 531.9375 C 520.773438 533.4375 519.394531 534.617188 517.667969 535.441406 C 515.925781 536.28125 513.933594 536.695312 511.707031 536.695312 Z M 497.378906 533.089844 L 511.554688 533.089844 C 512.820312 533.089844 513.972656 532.773438 515.011719 532.136719 C 516.074219 531.472656 516.914062 530.609375 517.515625 529.53125 C 518.140625 528.429688 518.46875 527.300781 518.46875 526.125 C 518.46875 524.859375 518.167969 523.707031 517.566406 522.667969 C 516.964844 521.605469 516.175781 520.753906 515.210938 520.113281 C 514.234375 519.488281 513.121094 519.164062 511.855469 519.164062 L 497.378906 519.164062 Z M 497.378906 515.707031 L 510.351562 515.707031 C 511.617188 515.707031 512.730469 515.378906 513.710938 514.703125 C 514.710938 514.003906 515.476562 513.125 516.011719 512.050781 C 516.539062 510.945312 516.816406 509.820312 516.816406 508.644531 C 516.816406 506.875 516.226562 505.335938 515.0625 504.035156 C 513.921875 502.707031 512.457031 502.03125 510.652344 502.03125 L 497.378906 502.03125 Z M 497.378906 515.707031 " fill-opacity="1" fill-rule="nonzero"></path> <path fill="#a586c9" d="M 546.488281 536.695312 L 546.488281 498.421875 L 551.496094 498.421875 L 551.496094 514.804688 L 557.257812 514.804688 L 570.082031 498.421875 L 575.792969 498.421875 L 561.214844 517.007812 L 577.644531 536.695312 L 571.785156 536.695312 L 557.257812 519.414062 L 551.496094 519.414062 L 551.496094 536.695312 Z M 546.488281 536.695312 " fill-opacity="1" fill-rule="nonzero"></path> <path fill="#a586c9" d="M 596.292969 525.675781 C 596.292969 523.269531 596.96875 521.203125 598.34375 519.464844 C 599.710938 517.734375 601.613281 516.394531 604.054688 515.457031 C 606.484375 514.492188 609.292969 514.003906 612.472656 514.003906 C 614.339844 514.003906 616.277344 514.152344 618.28125 514.453125 C 620.285156 514.753906 622.066406 515.191406 623.644531 515.757812 L 623.644531 512.550781 C 623.644531 509.320312 622.667969 506.738281 620.738281 504.835938 C 618.832031 502.933594 616.191406 501.980469 612.824219 501.980469 C 610.78125 501.980469 608.765625 502.367188 606.761719 503.132812 C 604.78125 503.871094 602.714844 504.972656 600.550781 506.4375 L 598.644531 502.933594 C 601.152344 501.203125 603.605469 499.914062 606.011719 499.074219 C 608.414062 498.210938 610.84375 497.773438 613.324219 497.773438 C 618.03125 497.773438 621.75 499.125 624.496094 501.828125 C 627.226562 504.511719 628.601562 508.21875 628.601562 512.949219 L 628.601562 530.683594 C 628.601562 531.359375 628.753906 531.859375 629.054688 532.1875 C 629.355469 532.488281 629.816406 532.675781 630.457031 532.738281 L 630.457031 536.695312 C 629.917969 536.71875 629.453125 536.757812 629.054688 536.796875 C 628.652344 536.859375 628.363281 536.871094 628.203125 536.84375 C 626.960938 536.769531 626.023438 536.382812 625.394531 535.644531 C 624.757812 534.917969 624.40625 534.140625 624.34375 533.339844 L 624.292969 530.535156 C 622.589844 532.738281 620.347656 534.441406 617.582031 535.644531 C 614.839844 536.84375 612.046875 537.445312 609.214844 537.445312 C 606.773438 537.445312 604.558594 536.921875 602.554688 535.894531 C 600.574219 534.828125 599.046875 533.414062 597.945312 531.636719 C 596.84375 529.832031 596.292969 527.855469 596.292969 525.675781 Z M 621.941406 528.628906 C 622.464844 527.929688 622.890625 527.265625 623.191406 526.625 C 623.492188 526 623.644531 525.425781 623.644531 524.921875 L 623.644531 519.363281 C 621.964844 518.738281 620.238281 518.25 618.433594 517.910156 C 616.65625 517.546875 614.875 517.359375 613.074219 517.359375 C 609.492188 517.359375 606.609375 518.085938 604.40625 519.511719 C 602.203125 520.914062 601.101562 522.855469 601.101562 525.324219 C 601.101562 526.726562 601.464844 528.066406 602.203125 529.332031 C 602.929688 530.570312 604.007812 531.585938 605.410156 532.386719 C 606.835938 533.1875 608.515625 533.589844 610.417969 533.589844 C 612.824219 533.589844 615.050781 533.136719 617.128906 532.238281 C 619.195312 531.308594 620.800781 530.109375 621.941406 528.628906 Z M 621.941406 528.628906 " fill-opacity="1" fill-rule="nonzero"></path> <path fill="#a586c9" d="M 687.296875 536.695312 L 687.296875 498.421875 L 692.304688 498.421875 L 692.304688 514.90625 L 714.195312 514.90625 L 714.195312 498.421875 L 719.207031 498.421875 L 719.207031 536.695312 L 714.195312 536.695312 L 714.195312 519.363281 L 692.304688 519.363281 L 692.304688 536.695312 Z M 687.296875 536.695312 " fill-opacity="1" fill-rule="nonzero"></path> <path fill="#a586c9" d="M 741.730469 525.675781 C 741.730469 523.269531 742.40625 521.203125 743.785156 519.464844 C 745.152344 517.734375 747.054688 516.394531 749.496094 515.457031 C 751.925781 514.492188 754.730469 514.003906 757.914062 514.003906 C 759.777344 514.003906 761.71875 514.152344 763.722656 514.453125 C 765.726562 514.753906 767.503906 515.191406 769.082031 515.757812 L 769.082031 512.550781 C 769.082031 509.320312 768.105469 506.738281 766.175781 504.835938 C 764.273438 502.933594 761.632812 501.980469 758.261719 501.980469 C 756.222656 501.980469 754.207031 502.367188 752.203125 503.132812 C 750.222656 503.871094 748.15625 504.972656 745.988281 506.4375 L 744.085938 502.933594 C 746.589844 501.203125 749.046875 499.914062 751.449219 499.074219 C 753.855469 498.210938 756.285156 497.773438 758.765625 497.773438 C 763.472656 497.773438 767.191406 499.125 769.933594 501.828125 C 772.664062 504.511719 774.042969 508.21875 774.042969 512.949219 L 774.042969 530.683594 C 774.042969 531.359375 774.191406 531.859375 774.492188 532.1875 C 774.792969 532.488281 775.257812 532.675781 775.894531 532.738281 L 775.894531 536.695312 C 775.355469 536.71875 774.894531 536.757812 774.492188 536.796875 C 774.09375 536.859375 773.804688 536.871094 773.640625 536.84375 C 772.402344 536.769531 771.460938 536.382812 770.835938 535.644531 C 770.199219 534.917969 769.847656 534.140625 769.785156 533.339844 L 769.734375 530.535156 C 768.03125 532.738281 765.789062 534.441406 763.023438 535.644531 C 760.277344 536.84375 757.488281 537.445312 754.65625 537.445312 C 752.214844 537.445312 749.996094 536.921875 747.992188 535.894531 C 746.015625 534.828125 744.488281 533.414062 743.386719 531.636719 C 742.28125 529.832031 741.730469 527.855469 741.730469 525.675781 Z M 767.378906 528.628906 C 767.90625 527.929688 768.332031 527.265625 768.632812 526.625 C 768.933594 526 769.082031 525.425781 769.082031 524.921875 L 769.082031 519.363281 C 767.40625 518.738281 765.675781 518.25 763.875 517.910156 C 762.09375 517.546875 760.316406 517.359375 758.511719 517.359375 C 754.929688 517.359375 752.050781 518.085938 749.847656 519.511719 C 747.644531 520.914062 746.539062 522.855469 746.539062 525.324219 C 746.539062 526.726562 746.902344 528.066406 747.644531 529.332031 C 748.371094 530.570312 749.445312 531.585938 750.847656 532.386719 C 752.277344 533.1875 753.953125 533.589844 755.859375 533.589844 C 758.261719 533.589844 760.492188 533.136719 762.570312 532.238281 C 764.636719 531.308594 766.242188 530.109375 767.378906 528.628906 Z M 767.378906 528.628906 " fill-opacity="1" fill-rule="nonzero"></path> <path fill="#a586c9" d="M 849.117188 537.445312 C 846.375 537.445312 843.832031 536.921875 841.503906 535.894531 C 839.199219 534.828125 837.195312 533.375 835.492188 531.535156 C 833.8125 529.707031 832.511719 527.601562 831.582031 525.222656 C 830.644531 522.820312 830.179688 520.300781 830.179688 517.660156 C 830.179688 514.929688 830.644531 512.375 831.582031 509.996094 C 832.511719 507.628906 833.839844 505.523438 835.542969 503.683594 C 837.269531 501.855469 839.296875 500.414062 841.601562 499.375 C 843.933594 498.3125 846.472656 497.773438 849.214844 497.773438 C 851.945312 497.773438 854.476562 498.3125 856.78125 499.375 C 859.085938 500.414062 861.089844 501.855469 862.792969 503.683594 C 864.496094 505.523438 865.808594 507.628906 866.75 509.996094 C 867.675781 512.375 868.152344 514.929688 868.152344 517.660156 C 868.152344 520.300781 867.675781 522.820312 866.75 525.222656 C 865.808594 527.601562 864.496094 529.707031 862.792969 531.535156 C 861.113281 533.375 859.109375 534.828125 856.78125 535.894531 C 854.476562 536.921875 851.921875 537.445312 849.117188 537.445312 Z M 835.242188 517.757812 C 835.242188 520.601562 835.855469 523.195312 837.09375 525.523438 C 838.359375 527.828125 840.050781 529.667969 842.152344 531.035156 C 844.257812 532.375 846.574219 533.039062 849.117188 533.039062 C 851.683594 533.039062 854.027344 532.363281 856.128906 530.984375 C 858.234375 529.621094 859.910156 527.753906 861.1875 525.375 C 862.453125 522.96875 863.09375 520.390625 863.09375 517.609375 C 863.09375 514.777344 862.453125 512.1875 861.1875 509.84375 C 859.910156 507.476562 858.234375 505.613281 856.128906 504.234375 C 854.027344 502.871094 851.683594 502.179688 849.117188 502.179688 C 846.574219 502.179688 844.269531 502.90625 842.203125 504.335938 C 840.125 505.738281 838.445312 507.617188 837.144531 509.945312 C 835.867188 512.25 835.242188 514.855469 835.242188 517.757812 Z M 835.242188 517.757812 " fill-opacity="1" fill-rule="nonzero"></path> <path fill="#a586c9" d="M 886.902344 545.5625 L 886.902344 532.238281 L 887.554688 532.238281 C 888.679688 532.238281 889.71875 531.910156 890.660156 531.234375 C 891.585938 530.535156 892.425781 529.332031 893.164062 527.628906 C 893.890625 525.898438 894.476562 523.519531 894.917969 520.515625 C 895.34375 517.507812 895.628906 513.703125 895.769531 509.09375 L 896.167969 498.421875 L 921.066406 498.421875 L 921.066406 532.238281 L 926.175781 532.238281 L 926.175781 545.5625 L 921.71875 545.5625 L 921.71875 536.695312 L 891.308594 536.695312 L 891.308594 545.5625 Z M 895.117188 532.238281 L 916.054688 532.238281 L 916.054688 502.933594 L 900.628906 502.933594 L 900.425781 509.542969 C 900.25 514.089844 899.9375 517.898438 899.476562 520.964844 C 899 524.007812 898.421875 526.425781 897.722656 528.230469 C 897.019531 530.007812 896.144531 531.335938 895.117188 532.238281 Z M 895.117188 532.238281 " fill-opacity="1" fill-rule="nonzero"></path> <path fill="#a586c9" d="M 964.910156 537.445312 C 962.167969 537.445312 959.613281 536.921875 957.246094 535.894531 C 954.90625 534.828125 952.863281 533.375 951.136719 531.535156 C 949.433594 529.707031 948.09375 527.578125 947.128906 525.171875 C 946.1875 522.769531 945.726562 520.203125 945.726562 517.460938 C 945.726562 513.890625 946.539062 510.621094 948.179688 507.640625 C 949.808594 504.636719 952.0625 502.253906 954.941406 500.476562 C 957.847656 498.675781 961.128906 497.773438 964.8125 497.773438 C 968.582031 497.773438 971.875 498.699219 974.679688 500.527344 C 977.507812 502.332031 979.738281 504.722656 981.34375 507.691406 C 982.96875 510.632812 983.796875 513.851562 983.796875 517.359375 C 983.796875 517.757812 983.796875 518.148438 983.796875 518.511719 C 983.796875 518.886719 983.757812 519.164062 983.695312 519.363281 L 950.933594 519.363281 C 951.199219 522.105469 951.960938 524.546875 953.238281 526.675781 C 954.542969 528.816406 956.21875 530.507812 958.296875 531.734375 C 960.402344 532.976562 962.667969 533.589844 965.113281 533.589844 C 967.617188 533.589844 969.96875 532.964844 972.175781 531.6875 C 974.402344 530.421875 975.980469 528.769531 976.882812 526.726562 L 981.191406 527.878906 C 980.414062 529.683594 979.214844 531.324219 977.585938 532.789062 C 975.980469 534.265625 974.089844 535.417969 971.925781 536.246094 C 969.746094 537.046875 967.414062 537.445312 964.910156 537.445312 Z M 950.785156 515.757812 L 979.085938 515.757812 C 978.886719 512.988281 978.136719 510.546875 976.832031 508.441406 C 975.53125 506.339844 973.839844 504.683594 971.773438 503.484375 C 969.695312 502.28125 967.414062 501.679688 964.910156 501.679688 C 962.40625 501.679688 960.113281 502.28125 958.046875 503.484375 C 956.007812 504.683594 954.339844 506.363281 953.039062 508.492188 C 951.738281 510.597656 950.984375 513.027344 950.785156 515.757812 Z M 950.785156 515.757812 " fill-opacity="1" fill-rule="nonzero"></path> <path fill="#a586c9" d="M 1003.410156 536.695312 L 1017.734375 517.007812 L 1004.8125 498.421875 L 1010.421875 498.421875 L 1021.992188 514.953125 L 1026.953125 514.953125 L 1026.953125 498.421875 L 1032.113281 498.421875 L 1032.113281 514.953125 L 1037.273438 514.953125 L 1048.542969 498.421875 L 1054.304688 498.421875 L 1041.28125 517.007812 L 1055.757812 536.695312 L 1049.945312 536.695312 L 1037.273438 519.363281 L 1032.113281 519.363281 L 1032.113281 536.695312 L 1026.953125 536.695312 L 1026.953125 519.363281 L 1021.992188 519.363281 L 1009.21875 536.695312 Z M 1003.410156 536.695312 " fill-opacity="1" fill-rule="nonzero"></path> <path fill="#a586c9" d="M 1074.429688 545.5625 L 1074.429688 532.238281 L 1075.082031 532.238281 C 1076.207031 532.238281 1077.246094 531.910156 1078.1875 531.234375 C 1079.113281 530.535156 1079.953125 529.332031 1080.691406 527.628906 C 1081.417969 525.898438 1082.007812 523.519531 1082.445312 520.515625 C 1082.871094 517.507812 1083.160156 513.703125 1083.296875 509.09375 L 1083.699219 498.421875 L 1108.59375 498.421875 L 1108.59375 532.238281 L 1113.703125 532.238281 L 1113.703125 545.5625 L 1109.246094 545.5625 L 1109.246094 536.695312 L 1078.839844 536.695312 L 1078.839844 545.5625 Z M 1082.644531 532.238281 L 1103.585938 532.238281 L 1103.585938 502.933594 L 1088.15625 502.933594 L 1087.957031 509.542969 C 1087.78125 514.089844 1087.46875 517.898438 1087.003906 520.964844 C 1086.527344 524.007812 1085.953125 526.425781 1085.25 528.230469 C 1084.550781 530.007812 1083.671875 531.335938 1082.644531 532.238281 Z M 1082.644531 532.238281 " fill-opacity="1" fill-rule="nonzero"></path> <path fill="#a586c9" d="M 1152.4375 537.445312 C 1149.695312 537.445312 1147.140625 536.921875 1144.773438 535.894531 C 1142.429688 534.828125 1140.390625 533.375 1138.660156 531.535156 C 1136.957031 529.707031 1135.617188 527.578125 1134.652344 525.171875 C 1133.714844 522.769531 1133.25 520.203125 1133.25 517.460938 C 1133.25 513.890625 1134.066406 510.621094 1135.707031 507.640625 C 1137.332031 504.636719 1139.585938 502.253906 1142.46875 500.476562 C 1145.375 498.675781 1148.65625 497.773438 1152.335938 497.773438 C 1156.105469 497.773438 1159.398438 498.699219 1162.203125 500.527344 C 1165.035156 502.332031 1167.265625 504.722656 1168.867188 507.691406 C 1170.496094 510.632812 1171.320312 513.851562 1171.320312 517.359375 C 1171.320312 517.757812 1171.320312 518.148438 1171.320312 518.511719 C 1171.320312 518.886719 1171.285156 519.164062 1171.222656 519.363281 L 1138.460938 519.363281 C 1138.722656 522.105469 1139.488281 524.546875 1140.765625 526.675781 C 1142.066406 528.816406 1143.746094 530.507812 1145.824219 531.734375 C 1147.929688 532.976562 1150.195312 533.589844 1152.636719 533.589844 C 1155.140625 533.589844 1157.496094 532.964844 1159.699219 531.6875 C 1161.929688 530.421875 1163.507812 528.769531 1164.410156 526.726562 L 1168.71875 527.878906 C 1167.941406 529.683594 1166.738281 531.324219 1165.109375 532.789062 C 1163.507812 534.265625 1161.617188 535.417969 1159.449219 536.246094 C 1157.269531 537.046875 1154.941406 537.445312 1152.4375 537.445312 Z M 1138.308594 515.757812 L 1166.613281 515.757812 C 1166.414062 512.988281 1165.660156 510.546875 1164.359375 508.441406 C 1163.054688 506.339844 1161.367188 504.683594 1159.300781 503.484375 C 1157.21875 502.28125 1154.941406 501.679688 1152.4375 501.679688 C 1149.933594 501.679688 1147.640625 502.28125 1145.574219 503.484375 C 1143.53125 504.683594 1141.867188 506.363281 1140.5625 508.492188 C 1139.261719 510.597656 1138.511719 513.027344 1138.308594 515.757812 Z M 1138.308594 515.757812 " fill-opacity="1" fill-rule="nonzero"></path> </svg> 