<?xml version="1.0" encoding="UTF-8"?> <svg xmlns="http://www.w3.org/2000/svg" viewBox="0 0 100 100" fill-rule="evenodd"> <g fill="#a586c9"> <path d="M50.004 36.36c-11.776 0-21.357 9.581-21.357 21.357s9.581 21.357 21.357 21.357 21.357-9.581 21.357-21.357S61.78 36.36 50.004 36.36zm0 39.714c-10.122 0-18.357-8.235-18.357-18.357S39.882 39.36 50.004 39.36s18.357 8.235 18.357 18.357-8.235 18.357-18.357 18.357z"></path> <path d="m82.665 25.531-.002-.019v-13.84a1.5 1.5 0 0 0-1.5-1.5H18.842a1.5 1.5 0 0 0-1.5 1.5v76.656a1.5 1.5 0 0 0 1.5 1.5h62.321a1.5 1.5 0 0 0 1.5-1.5V25.55l.002-.019zm-3.002-12.359v10.859H20.342V13.172h59.321zM20.342 86.828V27.031h59.321v59.797H20.342z"></path> <path d="M25.773 20.1h13.845a1.5 1.5 0 1 0 0-3H25.773a1.5 1.5 0 1 0 0 3zm24.231 24.51c-7.226 0-13.104 5.879-13.104 13.107s5.878 13.107 13.104 13.107 13.104-5.88 13.104-13.107S57.229 44.61 50.004 44.61zm0 23.214c-5.571 0-10.104-4.534-10.104-10.107S44.433 47.61 50.004 47.61s10.104 4.534 10.104 10.107-4.533 10.107-10.104 10.107z"></path> </g> </svg> 