<?xml version="1.0" encoding="UTF-8"?> <svg xmlns="http://www.w3.org/2000/svg" width="389" height="137" viewBox="0 0 389 137" fill="none"> <path d="M31.3166 88.08C35.4766 88.08 39.4366 87 43.1966 84.84C46.9566 82.68 50.0766 79.72 52.5566 75.96V82.08C49.5966 85.36 46.3566 87.76 42.8366 89.28C39.3166 90.72 35.3166 91.44 30.8366 91.44C25.8766 91.44 21.1966 90.12 16.7966 87.48C12.4766 84.84 8.99661 81.32 6.35661 76.92C3.79661 72.52 2.51661 67.84 2.51661 62.88C2.51661 57.52 3.79661 52.72 6.35661 48.48C8.91661 44.16 12.3966 40.8 16.7966 38.4C21.2766 36 26.2366 34.8 31.6766 34.8C39.9966 34.8 47.0766 38.08 52.9166 44.64L15.2366 81.84C17.8766 84 20.4366 85.6 22.9166 86.64C25.3966 87.6 28.1966 88.08 31.3166 88.08ZM6.35661 62.52C6.35661 69.16 8.55661 74.84 12.9566 79.56L48.1166 44.64C45.4766 42.32 42.9166 40.68 40.4366 39.72C37.9566 38.68 34.9966 38.16 31.5566 38.16C26.6766 38.16 22.3166 39.24 18.4766 41.4C14.7166 43.48 11.7566 46.36 9.59661 50.04C7.43661 53.72 6.35661 57.88 6.35661 62.52Z" fill="#A586C9"></path> <path d="M94.9194 0.23999H98.7594V54.72L120.119 36H125.039L100.319 57.6L131.279 90H126.119L98.7594 61.2V90H94.9194V0.23999Z" fill="#A586C9"></path> <path d="M195.717 91.92C190.277 91.92 185.357 90.6 180.957 87.96C176.557 85.24 173.117 81.68 170.637 77.28C168.157 72.8 166.917 67.96 166.917 62.76C166.917 57.64 168.157 52.88 170.637 48.48C173.197 44.08 176.637 40.6 180.957 38.04C185.357 35.4 190.237 34.08 195.597 34.08C200.877 34.08 205.677 35.4 209.997 38.04C214.397 40.6 217.837 44.08 220.317 48.48C222.797 52.88 224.037 57.64 224.037 62.76C224.037 68.12 222.837 73.04 220.437 77.52C218.037 81.92 214.677 85.44 210.357 88.08C206.117 90.64 201.237 91.92 195.717 91.92ZM195.717 88.56C200.277 88.56 204.437 87.4 208.197 85.08C211.957 82.76 214.877 79.68 216.957 75.84C219.117 71.92 220.197 67.64 220.197 63C220.197 58.44 219.117 54.2 216.957 50.28C214.797 46.36 211.837 43.24 208.077 40.92C204.317 38.6 200.157 37.44 195.597 37.44C191.037 37.44 186.837 38.64 182.997 41.04C179.237 43.36 176.237 46.48 173.997 50.4C171.837 54.32 170.757 58.56 170.757 63.12C170.757 67.68 171.837 71.92 173.997 75.84C176.237 79.68 179.237 82.76 182.997 85.08C186.837 87.4 191.077 88.56 195.717 88.56Z" fill="#A586C9"></path> <path d="M266.013 36H269.853V48.48C271.453 44.56 273.773 41.48 276.813 39.24C279.933 37 283.453 35.88 287.373 35.88C289.853 35.88 292.373 36.4 294.933 37.44V41.88C292.613 40.12 290.013 39.24 287.133 39.24C284.253 39.24 281.453 40.12 278.733 41.88C276.093 43.64 273.933 46 272.253 48.96C270.653 51.92 269.853 55.08 269.853 58.44V90H266.013V36Z" fill="#A586C9"></path> <path d="M334.451 36H338.291V48C340.051 44 343.051 40.8 347.291 38.4C351.531 35.92 356.211 34.68 361.331 34.68C367.971 34.68 373.211 36.8 377.051 41.04C380.971 45.2 382.931 51.04 382.931 58.56V90H379.091V58.56C379.091 52.08 377.491 47.04 374.291 43.44C371.171 39.84 366.771 38.04 361.091 38.04C356.931 38.04 353.091 39 349.571 40.92C346.131 42.76 343.371 45.32 341.291 48.6C339.291 51.88 338.291 55.6 338.291 59.76V90H334.451V36Z" fill="#A586C9"></path> <path d="M13.692 118.97C13.692 119.97 13.392 120.75 12.792 121.31C12.192 121.87 11.422 122.25 10.482 122.45V122.57C11.482 122.71 12.352 123.07 13.092 123.65C13.832 124.21 14.202 125.09 14.202 126.29C14.202 126.97 14.072 127.6 13.812 128.18C13.572 128.76 13.192 129.26 12.672 129.68C12.152 130.1 11.482 130.43 10.662 130.67C9.84196 130.89 8.85196 131 7.69196 131H0.761963V114.92H7.66196C8.80196 114.92 9.82196 115.05 10.722 115.31C11.642 115.55 12.362 115.97 12.882 116.57C13.422 117.15 13.692 117.95 13.692 118.97ZM11.472 126.29C11.472 125.37 11.122 124.71 10.422 124.31C9.72196 123.91 8.69196 123.71 7.33196 123.71H3.40196V128.87H7.39196C8.71196 128.87 9.72196 128.68 10.422 128.3C11.122 127.9 11.472 127.23 11.472 126.29ZM11.022 119.3C11.022 118.54 10.742 117.99 10.182 117.65C9.64196 117.29 8.75196 117.11 7.51196 117.11H3.40196V121.52H7.03196C8.33196 121.52 9.32196 121.34 10.002 120.98C10.682 120.62 11.022 120.06 11.022 119.3Z" fill="#A586C9"></path> <path d="M24.0471 131V114.92H26.6871V121.52H30.8571C32.2571 121.52 33.4071 121.69 34.3071 122.03C35.2071 122.37 35.8771 122.88 36.3171 123.56C36.7571 124.22 36.9771 125.06 36.9771 126.08C36.9771 127.08 36.7571 127.95 36.3171 128.69C35.8971 129.43 35.2271 130 34.3071 130.4C33.4071 130.8 32.2171 131 30.7371 131H24.0471ZM30.4971 128.87C31.6371 128.87 32.5671 128.68 33.2871 128.3C34.0071 127.9 34.3671 127.21 34.3671 126.23C34.3671 125.25 34.0371 124.59 33.3771 124.25C32.7171 123.89 31.7671 123.71 30.5271 123.71H26.6871V128.87H30.4971ZM39.6471 131V114.92H42.2871V131H39.6471Z" fill="#A586C9"></path> <path d="M75.2067 114.92V131H53.3967V114.92H56.0367V128.78H62.9667V114.92H65.6067V128.78H72.5667V114.92H75.2067Z" fill="#A586C9"></path> <path d="M88.8399 124.73C88.8399 124.91 88.8299 125.17 88.8099 125.51C88.8099 125.83 88.7999 126.18 88.7799 126.56C88.7599 126.92 88.7399 127.27 88.7199 127.61C88.6999 127.93 88.6799 128.19 88.6599 128.39L97.2699 114.92H100.51V131H98.0499V121.52C98.0499 121.2 98.0499 120.78 98.0499 120.26C98.0699 119.74 98.0899 119.23 98.1099 118.73C98.1299 118.21 98.1499 117.82 98.1699 117.56L89.6199 131H86.3499V114.92H88.8399V124.73Z" fill="#A586C9"></path> <path d="M124.557 118.97C124.557 119.97 124.257 120.75 123.657 121.31C123.057 121.87 122.287 122.25 121.347 122.45V122.57C122.347 122.71 123.217 123.07 123.957 123.65C124.697 124.21 125.067 125.09 125.067 126.29C125.067 126.97 124.937 127.6 124.677 128.18C124.437 128.76 124.057 129.26 123.537 129.68C123.017 130.1 122.347 130.43 121.527 130.67C120.707 130.89 119.717 131 118.557 131H111.627V114.92H118.527C119.667 114.92 120.687 115.05 121.587 115.31C122.507 115.55 123.227 115.97 123.747 116.57C124.287 117.15 124.557 117.95 124.557 118.97ZM122.337 126.29C122.337 125.37 121.987 124.71 121.287 124.31C120.587 123.91 119.557 123.71 118.197 123.71H114.267V128.87H118.257C119.577 128.87 120.587 128.68 121.287 128.3C121.987 127.9 122.337 127.23 122.337 126.29ZM121.887 119.3C121.887 118.54 121.607 117.99 121.047 117.65C120.507 117.29 119.617 117.11 118.377 117.11H114.267V121.52H117.897C119.197 121.52 120.187 121.34 120.867 120.98C121.547 120.62 121.887 120.06 121.887 119.3Z" fill="#A586C9"></path> <path d="M144.422 114.92H147.302L140.432 122.66L147.872 131H144.812L137.552 122.84V131H134.912V114.92H137.552V122.72L144.422 114.92Z" fill="#A586C9"></path> <path d="M162.881 114.65C164.841 114.65 166.291 115.08 167.231 115.94C168.171 116.8 168.641 118.17 168.641 120.05V131H166.721L166.211 128.72H166.091C165.631 129.3 165.151 129.79 164.651 130.19C164.171 130.57 163.611 130.85 162.971 131.03C162.351 131.21 161.591 131.3 160.691 131.3C159.731 131.3 158.861 131.13 158.081 130.79C157.321 130.45 156.721 129.93 156.281 129.23C155.841 128.51 155.621 127.61 155.621 126.53C155.621 124.93 156.251 123.7 157.511 122.84C158.771 121.96 160.711 121.48 163.331 121.4L166.061 121.31V120.35C166.061 119.01 165.771 118.08 165.191 117.56C164.611 117.04 163.791 116.78 162.731 116.78C161.891 116.78 161.091 116.91 160.331 117.17C159.571 117.41 158.861 117.69 158.201 118.01L157.391 116.03C158.091 115.65 158.921 115.33 159.881 115.07C160.841 114.79 161.841 114.65 162.881 114.65ZM163.661 123.23C161.661 123.31 160.271 123.63 159.491 124.19C158.731 124.75 158.351 125.54 158.351 126.56C158.351 127.46 158.621 128.12 159.161 128.54C159.721 128.96 160.431 129.17 161.291 129.17C162.651 129.17 163.781 128.8 164.681 128.06C165.581 127.3 166.031 126.14 166.031 124.58V123.14L163.661 123.23Z" fill="#A586C9"></path> <path d="M194.957 114.92V121.61H203.687V114.92H206.327V131H203.687V123.83H194.957V131H192.317V114.92H194.957Z" fill="#A586C9"></path> <path d="M223.508 114.65C225.468 114.65 226.918 115.08 227.858 115.94C228.798 116.8 229.268 118.17 229.268 120.05V131H227.348L226.838 128.72H226.718C226.258 129.3 225.778 129.79 225.278 130.19C224.798 130.57 224.238 130.85 223.598 131.03C222.978 131.21 222.218 131.3 221.318 131.3C220.358 131.3 219.488 131.13 218.708 130.79C217.948 130.45 217.348 129.93 216.908 129.23C216.468 128.51 216.248 127.61 216.248 126.53C216.248 124.93 216.878 123.7 218.138 122.84C219.398 121.96 221.338 121.48 223.958 121.4L226.688 121.31V120.35C226.688 119.01 226.398 118.08 225.818 117.56C225.238 117.04 224.418 116.78 223.358 116.78C222.518 116.78 221.718 116.91 220.958 117.17C220.198 117.41 219.488 117.69 218.828 118.01L218.018 116.03C218.718 115.65 219.548 115.33 220.508 115.07C221.468 114.79 222.468 114.65 223.508 114.65ZM224.288 123.23C222.288 123.31 220.898 123.63 220.118 124.19C219.358 124.75 218.978 125.54 218.978 126.56C218.978 127.46 219.248 128.12 219.788 128.54C220.348 128.96 221.058 129.17 221.918 129.17C223.278 129.17 224.408 128.8 225.308 128.06C226.208 127.3 226.658 126.14 226.658 124.58V123.14L224.288 123.23Z" fill="#A586C9"></path> <path d="M266.924 122.93C266.924 124.27 266.744 125.46 266.384 126.5C266.044 127.52 265.544 128.39 264.884 129.11C264.244 129.83 263.454 130.38 262.514 130.76C261.594 131.12 260.564 131.3 259.424 131.3C258.364 131.3 257.384 131.12 256.484 130.76C255.584 130.38 254.804 129.83 254.144 129.11C253.484 128.39 252.964 127.52 252.584 126.5C252.224 125.46 252.044 124.27 252.044 122.93C252.044 121.15 252.344 119.65 252.944 118.43C253.544 117.19 254.404 116.25 255.524 115.61C256.644 114.95 257.974 114.62 259.514 114.62C260.974 114.62 262.254 114.95 263.354 115.61C264.474 116.25 265.344 117.19 265.964 118.43C266.604 119.65 266.924 121.15 266.924 122.93ZM254.774 122.93C254.774 124.19 254.934 125.29 255.254 126.23C255.594 127.15 256.114 127.86 256.814 128.36C257.514 128.86 258.404 129.11 259.484 129.11C260.564 129.11 261.454 128.86 262.154 128.36C262.854 127.86 263.364 127.15 263.684 126.23C264.024 125.29 264.194 124.19 264.194 122.93C264.194 121.65 264.024 120.56 263.684 119.66C263.344 118.76 262.824 118.07 262.124 117.59C261.444 117.09 260.554 116.84 259.454 116.84C257.814 116.84 256.624 117.38 255.884 118.46C255.144 119.54 254.774 121.03 254.774 122.93Z" fill="#A586C9"></path> <path d="M289.048 114.92V128.78H291.388V136.58H288.838V131H277.648V136.58H275.128V128.78H276.418C277.338 127.5 278.098 126.11 278.698 124.61C279.318 123.09 279.778 121.51 280.078 119.87C280.398 118.21 280.568 116.56 280.588 114.92H289.048ZM282.928 116.99C282.848 118.35 282.638 119.76 282.298 121.22C281.958 122.66 281.518 124.04 280.978 125.36C280.458 126.68 279.848 127.82 279.148 128.78H286.498V116.99H282.928Z" fill="#A586C9"></path> <path d="M306.749 114.62C308.129 114.62 309.309 114.92 310.289 115.52C311.289 116.12 312.049 116.97 312.569 118.07C313.109 119.15 313.379 120.42 313.379 121.88V123.47H302.369C302.409 125.29 302.869 126.68 303.749 127.64C304.649 128.58 305.899 129.05 307.499 129.05C308.519 129.05 309.419 128.96 310.199 128.78C310.999 128.58 311.819 128.3 312.659 127.94V130.25C311.839 130.61 311.029 130.87 310.229 131.03C309.429 131.21 308.479 131.3 307.379 131.3C305.859 131.3 304.509 130.99 303.329 130.37C302.169 129.75 301.259 128.83 300.599 127.61C299.959 126.37 299.639 124.86 299.639 123.08C299.639 121.32 299.929 119.81 300.509 118.55C301.109 117.29 301.939 116.32 302.999 115.64C304.079 114.96 305.329 114.62 306.749 114.62ZM306.719 116.78C305.459 116.78 304.459 117.19 303.719 118.01C302.999 118.81 302.569 119.93 302.429 121.37H310.619C310.619 120.45 310.479 119.65 310.199 118.97C309.919 118.29 309.489 117.76 308.909 117.38C308.349 116.98 307.619 116.78 306.719 116.78Z" fill="#A586C9"></path> <path d="M342.763 114.92L336.133 122.72L343.333 131H340.333L333.373 122.84V131H330.913V122.84L323.953 131H320.953L328.153 122.72L321.523 114.92H324.403L330.913 122.72V114.92H333.373V122.72L339.913 114.92H342.763Z" fill="#A586C9"></path> <path d="M363.913 114.92V128.78H366.253V136.58H363.703V131H352.513V136.58H349.993V128.78H351.283C352.203 127.5 352.963 126.11 353.563 124.61C354.183 123.09 354.643 121.51 354.943 119.87C355.263 118.21 355.433 116.56 355.453 114.92H363.913ZM357.793 116.99C357.713 118.35 357.503 119.76 357.163 121.22C356.823 122.66 356.383 124.04 355.843 125.36C355.323 126.68 354.713 127.82 354.013 128.78H361.363V116.99H357.793Z" fill="#A586C9"></path> <path d="M381.615 114.62C382.995 114.62 384.175 114.92 385.155 115.52C386.155 116.12 386.915 116.97 387.435 118.07C387.975 119.15 388.245 120.42 388.245 121.88V123.47H377.235C377.275 125.29 377.735 126.68 378.615 127.64C379.515 128.58 380.765 129.05 382.365 129.05C383.385 129.05 384.285 128.96 385.065 128.78C385.865 128.58 386.685 128.3 387.525 127.94V130.25C386.705 130.61 385.895 130.87 385.095 131.03C384.295 131.21 383.345 131.3 382.245 131.3C380.725 131.3 379.375 130.99 378.195 130.37C377.035 129.75 376.125 128.83 375.465 127.61C374.825 126.37 374.505 124.86 374.505 123.08C374.505 121.32 374.795 119.81 375.375 118.55C375.975 117.29 376.805 116.32 377.865 115.64C378.945 114.96 380.195 114.62 381.615 114.62ZM381.585 116.78C380.325 116.78 379.325 117.19 378.585 118.01C377.865 118.81 377.435 119.93 377.295 121.37H385.485C385.485 120.45 385.345 119.65 385.065 118.97C384.785 118.29 384.355 117.76 383.775 117.38C383.215 116.98 382.485 116.78 381.585 116.78Z" fill="#A586C9"></path> </svg> 