<?xml version="1.0" encoding="UTF-8"?> <svg xmlns="http://www.w3.org/2000/svg" xmlns:xlink="http://www.w3.org/1999/xlink" width="500" zoomAndPan="magnify" viewBox="0 0 375 374.999991" height="500" preserveAspectRatio="xMidYMid meet"> <defs> <clipPath id="e78c756a64"> <path d="M 1 55 L 374 55 L 374 320.386719 L 1 320.386719 Z M 1 55 " clip-rule="nonzero"></path> </clipPath> </defs> <g clip-path="url(#e78c756a64)"> <path fill="#a586c9" d="M 354.464844 95.0625 L 333.773438 95.0625 L 333.773438 75.96875 C 333.773438 64.460938 324.410156 55.097656 312.902344 55.097656 L 22.140625 55.097656 C 10.632812 55.097656 1.269531 64.460938 1.269531 75.96875 L 1.269531 259.703125 C 1.269531 271.210938 10.632812 280.574219 22.140625 280.574219 L 41.226562 280.574219 L 41.226562 301.269531 C 41.226562 311.890625 49.867188 320.535156 60.492188 320.535156 L 354.464844 320.535156 C 365.085938 320.535156 373.730469 311.890625 373.730469 301.269531 L 373.730469 114.324219 C 373.730469 103.699219 365.085938 95.0625 354.464844 95.0625 Z M 22.140625 67.941406 L 312.902344 67.941406 C 317.328125 67.941406 320.929688 71.542969 320.929688 75.96875 L 320.929688 216.664062 L 245.5 141.234375 C 240.632812 136.367188 232.722656 136.367188 227.855469 141.234375 L 183.214844 185.871094 L 125.675781 128.332031 C 120.808594 123.464844 112.898438 123.464844 108.039062 128.332031 L 14.113281 222.257812 L 14.113281 75.96875 C 14.113281 71.542969 17.714844 67.941406 22.140625 67.941406 Z M 14.113281 259.703125 L 14.113281 240.410156 L 116.597656 137.414062 L 229.335938 250.152344 C 230.589844 251.40625 232.234375 252.035156 233.878906 252.035156 C 235.523438 252.035156 237.164062 251.40625 238.417969 250.152344 C 240.929688 247.640625 240.929688 243.582031 238.417969 241.074219 L 192.277344 194.933594 L 236.421875 150.320312 L 320.929688 234.832031 L 320.929688 259.707031 C 320.929688 264.132812 317.328125 267.734375 312.902344 267.734375 L 22.140625 267.734375 C 17.714844 267.730469 14.113281 264.132812 14.113281 259.703125 Z M 360.886719 301.269531 C 360.886719 304.816406 358.003906 307.691406 354.464844 307.691406 L 60.492188 307.691406 C 56.953125 307.691406 54.070312 304.816406 54.070312 301.269531 L 54.070312 280.574219 L 312.902344 280.574219 C 324.410156 280.574219 333.773438 271.210938 333.773438 259.703125 L 333.773438 107.90625 L 354.464844 107.90625 C 358.003906 107.90625 360.886719 110.78125 360.886719 114.324219 Z M 360.886719 301.269531 " fill-opacity="1" fill-rule="nonzero"></path> </g> <path fill="#a586c9" d="M 178.226562 127.167969 C 190.921875 127.167969 201.253906 116.84375 201.253906 104.140625 C 201.253906 91.4375 190.921875 81.113281 178.226562 81.113281 C 165.53125 81.113281 155.199219 91.4375 155.199219 104.140625 C 155.199219 116.84375 165.53125 127.167969 178.226562 127.167969 Z M 178.226562 93.957031 C 183.847656 93.957031 188.410156 98.527344 188.410156 104.140625 C 188.410156 109.753906 183.847656 114.328125 178.226562 114.328125 C 172.609375 114.328125 168.042969 109.753906 168.042969 104.140625 C 168.042969 98.527344 172.609375 93.957031 178.226562 93.957031 Z M 178.226562 93.957031 " fill-opacity="1" fill-rule="nonzero"></path> </svg> 