<?xml version="1.0" encoding="UTF-8"?> <svg xmlns="http://www.w3.org/2000/svg" xmlns:xlink="http://www.w3.org/1999/xlink" width="900" zoomAndPan="magnify" viewBox="0 0 675 675.000002" height="900" preserveAspectRatio="xMidYMid meet"> <defs> <clipPath id="4f88ab19eb"> <path d="M 3.804688 64 L 665.824219 64 L 665.824219 93.457031 L 3.804688 93.457031 Z M 3.804688 64 " clip-rule="nonzero"></path> </clipPath> <clipPath id="f5df0e7515"> <path d="M 6.5625 339 L 668.582031 339 L 668.582031 368.453125 L 6.5625 368.453125 Z M 6.5625 339 " clip-rule="nonzero"></path> </clipPath> <clipPath id="5f71468534"> <path d="M 6.5625 613 L 668.582031 613 L 668.582031 643.351562 L 6.5625 643.351562 Z M 6.5625 613 " clip-rule="nonzero"></path> </clipPath> </defs> <g clip-path="url(#4f88ab19eb)"> <path fill="#a586c9" d="M 3.804688 64.015625 L 666.972656 64.015625 L 666.972656 179.707031 L 3.804688 179.707031 L 3.804688 64.015625 " fill-opacity="1" fill-rule="nonzero"></path> </g> <g clip-path="url(#f5df0e7515)"> <path fill="#a586c9" d="M 6.5625 339.011719 L 669.730469 339.011719 L 669.730469 454.703125 L 6.5625 454.703125 L 6.5625 339.011719 " fill-opacity="1" fill-rule="nonzero"></path> </g> <g clip-path="url(#5f71468534)"> <path fill="#a586c9" d="M 6.5625 613.910156 L 669.730469 613.910156 L 669.730469 729.601562 L 6.5625 729.601562 L 6.5625 613.910156 " fill-opacity="1" fill-rule="nonzero"></path> </g> </svg> 