<?xml version="1.0" encoding="UTF-8"?> <svg xmlns="http://www.w3.org/2000/svg" viewBox="0 0 100 100" fill-rule="evenodd"> <g fill="#a586c9"> <path d="M95.381 41.436 72.885 18.942a1.5 1.5 0 0 0-1.061-.439H28.178c-.398 0-.779.158-1.061.439L4.622 41.436a1.5 1.5 0 0 0-.047 2.072l12.597 13.787a1.498 1.498 0 0 0 2.176.042l7.331-7.431v30.091a1.5 1.5 0 0 0 1.5 1.5h43.646a1.5 1.5 0 0 0 1.5-1.5v-30.09l7.327 7.43c.289.294.696.463 1.097.446a1.504 1.504 0 0 0 1.079-.488l12.601-13.787a1.5 1.5 0 0 0-.048-2.072zm-13.702 12.67-8.786-8.908a1.501 1.501 0 0 0-2.569 1.054v32.247H29.678V46.251a1.501 1.501 0 0 0-2.568-1.054l-8.789 8.909L7.757 42.544l21.042-21.042h42.404l21.042 21.042-10.566 11.562z"></path> </g> </svg> 