<?xml version="1.0" encoding="UTF-8"?> <svg xmlns="http://www.w3.org/2000/svg" xmlns:xlink="http://www.w3.org/1999/xlink" width="900" zoomAndPan="magnify" viewBox="0 0 675 675.000002" height="900" preserveAspectRatio="xMidYMid meet"> <defs> <clipPath id="0430001eca"> <path d="M 0.5 1 L 673 1 L 673 673 L 0.5 673 Z M 0.5 1 " clip-rule="nonzero"></path> </clipPath> </defs> <g clip-path="url(#0430001eca)"> <path fill="#a586c9" d="M 667.667969 644.398438 L 536.742188 513.472656 C 586.835938 456.546875 615.296875 384.820312 615.296875 308.539062 C 615.296875 138.898438 477.539062 1.136719 307.898438 1.136719 C 138.257812 1.136719 0.5 138.898438 0.5 308.539062 C 0.5 478.175781 138.257812 615.9375 307.898438 615.9375 C 384.179688 615.9375 455.90625 588.613281 512.832031 537.378906 L 643.761719 668.308594 C 647.175781 671.722656 651.730469 672.863281 656.285156 672.863281 C 660.839844 672.863281 665.390625 670.585938 668.808594 668.308594 C 674.5 661.476562 674.5 651.230469 667.667969 644.398438 Z M 307.898438 581.78125 C 157.613281 581.78125 34.65625 458.820312 34.65625 308.539062 C 34.65625 158.253906 157.613281 35.292969 307.898438 35.292969 C 458.183594 35.292969 581.140625 158.253906 581.140625 308.539062 C 581.140625 458.820312 458.183594 581.78125 307.898438 581.78125 Z M 307.898438 581.78125 " fill-opacity="1" fill-rule="nonzero"></path> </g> </svg> 